<svg id="Capa_1" enable-background="new 0 0 512 512" height="512" viewBox="0 0 512 512" width="512" xmlns="http://www.w3.org/2000/svg"><g id="XMLID_1829_"><g id="XMLID_1785_"><path id="XMLID_1827_" d="m305 366h60v136h-60z" fill="#ccf5fc"/><path id="XMLID_1810_" d="m365 410h54v92h-54z" fill="#fff"/><path id="XMLID_1923_" d="m116 366h54v136h-54z" fill="#8aa8bd"/><path id="XMLID_1849_" d="m236 75.181h40v75.319h-40z" fill="#e2e9ee"/><path id="XMLID_1848_" d="m282.833 230.5h-50c-14.912 0-27-12.088-27-27v-26c0-14.912 12.088-27 27-27h50c14.912 0 27 12.088 27 27v26c0 14.912-12.088 27-27 27z" fill="#ccf5fc"/><path id="XMLID_1809_" d="m302.254 502-26-271.5h-40.254l-26 271.5z" fill="#e2e9ee"/><path id="XMLID_1808_" d="m409 366h60v136h-60z" fill="#98eaf9"/><path id="XMLID_1790_" d="m419 437.086h83v64.914h-83z" fill="#e2e9ee"/><path id="XMLID_1788_" d="m10 502h197.661c-12.05-43.258-51.731-75-98.831-75-47.099 0-86.78 31.742-98.83 75z" fill="#ccf5fc"/></g><g id="XMLID_595_"><path id="XMLID_619_" d="m502 427.086h-23v-61.086c0-5.523-4.478-10-10-10h-60c-5.522 0-10 4.477-10 10v34h-24v-34c0-5.523-4.478-10-10-10h-60c-2.462 0-4.713.894-6.455 2.37l-11.314-118.14c18.335-2.183 32.602-17.816 32.602-36.73v-26c0-19.335-14.909-35.242-33.833-36.855v-65.464c0-5.522-4.478-10-10-10h-9.873v-55.181c0-5.522-4.478-10-10-10-5.523 0-10 4.477-10 10v55.181h-10.127c-5.523 0-10 4.478-10 10v65.962c-17.147 3.216-30.166 18.29-30.166 36.357v26c0 17.741 12.553 32.6 29.242 36.175l-21.887 228.545c-6.391-9.783-14.23-18.468-23.189-25.774v-76.446c0-5.523-4.477-10-10-10h-54c-5.523 0-10 4.477-10 10v51.06c-49.192 1.242-92.386 34.702-105.633 82.257-.839 3.012-.221 6.242 1.67 8.732 1.89 2.489 4.837 3.951 7.963 3.951h54c5.523 0 10-4.477 10-10s-4.477-10-10-10h-39.807c14.662-32.948 47.773-55 84.638-55 36.864 0 69.976 22.052 84.638 55h-39.468c-5.523 0-10 4.477-10 10 0 5.522 4.477 10 10 10h348c5.522 0 10-4.477 10-10v-64.914c-.001-5.522-4.478-10-10.001-10zm-342-51.086v53.391c-10.557-5.408-22.012-9.186-34-11.047v-42.344zm259 0h40v51.086h-30v-17.086c0-5.523-4.478-10-10-10zm-173-290.819h20v55.319h-20zm-13.166 75.319h49.999c9.374 0 17 7.626 17 17v3h-83.999v-3c0-9.374 7.626-17 17-17zm-17 43v-3h83.999v3c0 9.374-7.626 17-17 17h-49.999c-9.374 0-17-7.626-17-17zm5.17 288.5 24.085-251.5h22.078l24.084 251.5zm93.996-116h40v116h-40zm60 44h34v72h-34zm117 72h-63v-44.914h63z"/><path id="XMLID_631_" d="m109 492c-2.63 0-5.21 1.069-7.07 2.93-1.86 1.86-2.93 4.44-2.93 7.07s1.07 5.21 2.93 7.069c1.86 1.86 4.44 2.931 7.07 2.931s5.21-1.07 7.07-2.931c1.86-1.859 2.93-4.439 2.93-7.069s-1.07-5.21-2.93-7.07c-1.86-1.861-4.44-2.93-7.07-2.93z"/></g></g></svg>